<svg xmlns="http://www.w3.org/2000/svg" width="96" height="96" fill="none" viewBox="0 0 96 96"><g clip-path="url(#clip0_4303_1230)"><path fill="url(#paint0_radial_4303_1230)" d="M90.9805 13.6995C76.6143 13.4051 71.5308 10.9792 64.442 6.2804C60.2431 3.27742 54.4282 1.41675 48.0118 1.41675C41.5954 1.41675 35.7805 3.27742 31.5815 6.2804C24.4928 10.9792 19.4092 13.4051 5.04308 13.6995C3.34462 13.7348 2 15.1127 2 16.7732V37.0874C2 40.2906 2.33026 43.4467 2.94359 46.5674C6.81231 66.3871 22.6528 81.4844 46.3959 94.9212C46.8795 95.1921 47.4456 95.3334 48 95.3334C48.5544 95.3334 49.1087 95.1921 49.6041 94.9212C73.359 81.4844 89.1995 66.3871 93.0564 46.5674C93.6579 43.4584 93.9174 40.3024 93.9174 37.0874L94 16.7732C94 15.1127 92.6554 13.7348 90.9569 13.6995H90.9805Z"/><g filter="url(#filter0_dd_4303_1230)"><path fill="url(#paint1_linear_4303_1230)" d="M54.7552 41.868L36.2395 60.3838C35.1874 61.4358 35.1874 62.9086 36.2395 63.7502L40.0268 67.5376C41.0788 68.5896 42.5516 68.5896 43.3933 67.5376L61.909 49.0218C62.961 47.9698 62.961 46.497 61.909 45.6553L58.1217 41.868C57.2801 41.0264 55.5968 41.0264 54.7552 41.868Z"/><mask id="mask0_4303_1230" style="mask-type:alpha" width="28" height="28" x="35" y="41" maskUnits="userSpaceOnUse"><path fill="url(#paint2_linear_4303_1230)" d="M54.7552 41.868L36.2395 60.3838C35.1874 61.4358 35.1874 62.9086 36.2395 63.7502L40.0268 67.5376C41.0788 68.5896 42.5516 68.5896 43.3933 67.5376L61.909 49.0218C62.961 47.9698 62.961 46.497 61.909 45.6553L58.1217 41.868C57.2801 41.0264 55.5968 41.0264 54.7552 41.868Z"/></mask><g mask="url(#mask0_4303_1230)"><g filter="url(#filter1_dd_4303_1230)"><path fill="url(#paint3_linear_4303_1230)" d="M43.3933 27.1398L61.909 45.6555C62.961 46.7075 62.961 48.1803 61.909 49.022L58.1217 52.8093C57.0697 53.8613 55.5968 53.8613 54.7552 52.8093L36.2395 34.2936C35.1874 33.2415 35.1874 31.7687 36.2395 30.9271L40.0268 27.1398C40.8684 26.2981 42.5516 26.2981 43.3933 27.1398Z"/></g></g><path fill="url(#paint4_linear_4303_1230)" d="M43.3933 27.1398L61.909 45.6555C62.961 46.7075 62.961 48.1803 61.909 49.022L58.1217 52.8093C57.0697 53.8613 55.5968 53.8613 54.7552 52.8093L36.2395 34.2936C35.1874 33.2415 35.1874 31.7687 36.2395 30.9271L40.0268 27.1398C40.8684 26.2981 42.5516 26.2981 43.3933 27.1398Z"/></g></g><defs><filter id="filter0_dd_4303_1230" width="44.08" height="58.651" x="27.034" y="20.196" color-interpolation-filters="sRGB" filterUnits="userSpaceOnUse"><feFlood flood-opacity="0" result="BackgroundImageFix"/><feColorMatrix in="SourceAlpha" result="hardAlpha" type="matrix" values="0 0 0 0 0 0 0 0 0 0 0 0 0 0 0 0 0 0 127 0"/><feOffset dy="2.104"/><feGaussianBlur stdDeviation="4.208"/><feColorMatrix type="matrix" values="0 0 0 0 0 0 0 0 0 0 0 0 0 0 0 0 0 0 0.25 0"/><feBlend in2="BackgroundImageFix" mode="normal" result="effect1_dropShadow_4303_1230"/><feColorMatrix in="SourceAlpha" result="hardAlpha" type="matrix" values="0 0 0 0 0 0 0 0 0 0 0 0 0 0 0 0 0 0 127 0"/><feOffset dy="2.104"/><feGaussianBlur stdDeviation="4.208"/><feColorMatrix type="matrix" values="0 0 0 0 0 0 0 0 0 0 0 0 0 0 0 0 0 0 0.25 0"/><feBlend in2="effect1_dropShadow_4303_1230" mode="normal" result="effect2_dropShadow_4303_1230"/><feBlend in="SourceGraphic" in2="effect2_dropShadow_4303_1230" mode="normal" result="shape"/></filter><filter id="filter1_dd_4303_1230" width="44.08" height="43.922" x="27.034" y="20.196" color-interpolation-filters="sRGB" filterUnits="userSpaceOnUse"><feFlood flood-opacity="0" result="BackgroundImageFix"/><feColorMatrix in="SourceAlpha" result="hardAlpha" type="matrix" values="0 0 0 0 0 0 0 0 0 0 0 0 0 0 0 0 0 0 127 0"/><feOffset dy="2.104"/><feGaussianBlur stdDeviation="4.208"/><feColorMatrix type="matrix" values="0 0 0 0 0 0 0 0 0 0 0 0 0 0 0 0 0 0 0.25 0"/><feBlend in2="BackgroundImageFix" mode="normal" result="effect1_dropShadow_4303_1230"/><feColorMatrix in="SourceAlpha" result="hardAlpha" type="matrix" values="0 0 0 0 0 0 0 0 0 0 0 0 0 0 0 0 0 0 127 0"/><feOffset dy="2.104"/><feGaussianBlur stdDeviation="4.208"/><feColorMatrix type="matrix" values="0 0 0 0 0 0 0 0 0 0 0 0 0 0 0 0 0 0 0.25 0"/><feBlend in2="effect1_dropShadow_4303_1230" mode="normal" result="effect2_dropShadow_4303_1230"/><feBlend in="SourceGraphic" in2="effect2_dropShadow_4303_1230" mode="normal" result="shape"/></filter><radialGradient id="paint0_radial_4303_1230" cx="0" cy="0" r="1" gradientTransform="translate(53.2273 95.5076) rotate(-115.959) scale(88.3703 132.081)" gradientUnits="userSpaceOnUse"><stop stop-color="#4B298E"/><stop offset="1" stop-color="#9C6AF1"/></radialGradient><linearGradient id="paint1_linear_4303_1230" x1="39.574" x2="54.303" y1="70.606" y2="47.198" gradientUnits="userSpaceOnUse"><stop offset=".183" stop-color="#D8D8D8"/><stop offset="1" stop-color="#CFCFCF"/></linearGradient><linearGradient id="paint2_linear_4303_1230" x1="53.34" x2="44.833" y1="62.269" y2="47.533" gradientUnits="userSpaceOnUse"><stop stop-color="#999"/><stop offset="1" stop-color="#B3B3B3"/></linearGradient><linearGradient id="paint3_linear_4303_1230" x1="57.016" x2="41.157" y1="53.932" y2="26.462" gradientUnits="userSpaceOnUse"><stop stop-color="#CCC"/><stop offset="1" stop-color="#E6E6E6"/></linearGradient><linearGradient id="paint4_linear_4303_1230" x1="57.016" x2="41.157" y1="53.932" y2="26.462" gradientUnits="userSpaceOnUse"><stop stop-color="#E2E2E2"/><stop offset="1" stop-color="#fff"/></linearGradient><clipPath id="clip0_4303_1230"><rect width="96" height="96" fill="#fff"/></clipPath></defs></svg>